<svg height="512pt" viewBox="-43 0 512 512" width="512pt" xmlns="http://www.w3.org/2000/svg"><path d="m42.667969 136.535156h42.664062c4.714844 0 8.535157-3.824218 8.535157-8.535156s-3.820313-8.535156-8.535157-8.535156h-42.664062c-4.714844 0-8.535157 3.824218-8.535157 8.535156s3.820313 8.535156 8.535157 8.535156zm0 0"/><path d="m153.601562 136.535156h179.199219c4.710938 0 8.53125-3.824218 8.53125-8.535156s-3.820312-8.535156-8.53125-8.535156h-179.199219c-4.714843 0-8.535156 3.824218-8.535156 8.535156s3.820313 8.535156 8.535156 8.535156zm0 0"/><path d="m153.601562 170.667969h179.199219c4.710938 0 8.53125-3.820313 8.53125-8.535157 0-4.710937-3.820312-8.53125-8.53125-8.53125h-179.199219c-4.714843 0-8.535156 3.820313-8.535156 8.53125 0 4.714844 3.820313 8.535157 8.535156 8.535157zm0 0"/><path d="m42.667969 204.800781h42.664062c4.714844 0 8.535157-3.820312 8.535157-8.535156 0-4.710937-3.820313-8.53125-8.535157-8.53125h-42.664062c-4.714844 0-8.535157 3.820313-8.535157 8.53125 0 4.714844 3.820313 8.535156 8.535157 8.535156zm0 0"/><path d="m153.601562 204.800781h179.199219c4.710938 0 8.53125-3.820312 8.53125-8.535156 0-4.710937-3.820312-8.53125-8.53125-8.53125h-179.199219c-4.714843 0-8.535156 3.820313-8.535156 8.53125 0 4.714844 3.820313 8.535156 8.535156 8.535156zm0 0"/><path d="m153.601562 238.933594h179.199219c4.710938 0 8.53125-3.820313 8.53125-8.535156 0-4.710938-3.820312-8.53125-8.53125-8.53125h-179.199219c-4.714843 0-8.535156 3.820312-8.535156 8.53125 0 4.714843 3.820313 8.535156 8.535156 8.535156zm0 0"/><path d="m42.667969 273.066406h42.664062c4.714844 0 8.535157-3.820312 8.535157-8.53125 0-4.714844-3.820313-8.535156-8.535157-8.535156h-42.664062c-4.714844 0-8.535157 3.820312-8.535157 8.535156 0 4.710938 3.820313 8.53125 8.535157 8.53125zm0 0"/><path d="m153.601562 273.066406h179.199219c4.710938 0 8.53125-3.820312 8.53125-8.53125 0-4.714844-3.820312-8.535156-8.53125-8.535156h-179.199219c-4.714843 0-8.535156 3.820312-8.535156 8.535156 0 4.710938 3.820313 8.53125 8.535156 8.53125zm0 0"/><path d="m153.601562 307.199219h179.199219c4.710938 0 8.53125-3.820313 8.53125-8.53125 0-4.714844-3.820312-8.535157-8.53125-8.535157h-179.199219c-4.714843 0-8.535156 3.820313-8.535156 8.535157 0 4.710937 3.820313 8.53125 8.535156 8.53125zm0 0"/><path d="m196.265625 443.734375h-34.132813c-4.710937 0-8.53125 3.820313-8.53125 8.53125 0 4.714844 3.820313 8.535156 8.53125 8.535156h17.066407v8.53125c0 4.714844 3.820312 8.535157 8.535156 8.535157 4.710937 0 8.53125-3.820313 8.53125-8.535157v-8.53125c14.140625 0 25.601563-11.460937 25.601563-25.601562 0-14.136719-11.460938-25.597657-25.601563-25.597657h-17.066406c-4.710938 0-8.53125-3.820312-8.53125-8.535156 0-4.710937 3.820312-8.53125 8.53125-8.53125h34.132812c4.714844 0 8.535157-3.824218 8.535157-8.535156s-3.820313-8.535156-8.535157-8.535156h-17.066406v-8.53125c0-4.714844-3.820313-8.535156-8.53125-8.535156-4.714844 0-8.535156 3.820312-8.535156 8.535156v8.53125c-14.136719 0-25.597657 11.464844-25.597657 25.601562 0 14.140625 11.460938 25.601563 25.597657 25.601563h17.066406c4.714844 0 8.535156 3.820312 8.535156 8.53125 0 4.714843-3.820312 8.535156-8.535156 8.535156zm0 0"/><path d="m25.601562 512h324.265626c14.136718 0 25.597656-11.460938 25.597656-25.601562v-401.066407h34.136718c9.425782 0 17.066407-7.640625 17.066407-17.066406v-25.597656c-.03125-23.554688-19.117188-42.6406252-42.667969-42.667969h-358.398438c-14.140624 0-25.601562 11.460938-25.601562 25.601562v460.796876c0 14.140624 11.460938 25.601562 25.601562 25.601562zm162.132813-170.667969c31.0625 0 59.066406 18.714844 70.953125 47.410157 11.886719 28.699218 5.316406 61.730468-16.648438 83.695312-21.964843 21.964844-54.996093 28.535156-83.695312 16.648438-28.699219-11.886719-47.410156-39.890626-47.410156-70.953126.046875-42.394531 34.402344-76.753906 76.800781-76.800781zm196.265625-324.265625c14.136719 0 25.601562 11.460938 25.601562 25.601563v25.597656h-341.335937v-25.597656c-.03125-9.265625-3.105469-18.257813-8.753906-25.601563zm-366.933594 8.535156c0-4.714843 3.820313-8.535156 8.535156-8.535156 14.136719 0 25.597657 11.460938 25.597657 25.601563v25.597656c0 9.425781 7.640625 17.066406 17.066406 17.066406h290.132813v401.066407c0 4.714843-3.820313 8.535156-8.53125 8.535156h-108.332032c21.46875-14.980469 35.6875-38.261719 39.210938-64.199219 3.523437-25.9375-3.964844-52.167969-20.660156-72.335937h72.714843c4.710938 0 8.53125-3.820313 8.53125-8.53125 0-4.714844-3.820312-8.535157-8.53125-8.535157h-91.265625c-32.25-22.734375-75.3125-22.734375-107.5625 0h-91.304687c-4.714844 0-8.535157 3.820313-8.535157 8.535157 0 4.710937 3.820313 8.53125 8.535157 8.53125h72.710937c-16.6875 20.171874-24.171875 46.40625-20.640625 72.34375 3.535157 25.941406 17.761719 49.21875 39.234375 64.191406h-108.371094c-4.714843 0-8.535156-3.820313-8.535156-8.535156zm0 0"/></svg>