<svg height="496pt" viewBox="0 0 496 496" width="496pt" xmlns="http://www.w3.org/2000/svg"><path d="m32 160h400v64h16v-64h8c4.425781 0 8-3.585938 8-8v-96c0-4.414062-3.574219-8-8-8h-8v-40c0-4.414062-3.574219-8-8-8h-416c-4.425781 0-8 3.585938-8 8v40h-8c-4.425781 0-8 3.585938-8 8v96c0 4.414062 3.574219 8 8 8h8v248c0 4.414062 3.574219 8 8 8h88v-16h-80zm96-96v80h-48v-80zm256 0v80h-48v-80zm-64 80h-48v-80h48zm-64 0h-48v-80h48zm-64 0h-48v-80h48zm256 0h-48v-80h48zm-416-128h400v32h-400zm-16 48h48v80h-48zm0 0"/><path d="m56 176c-4.425781 0-8 3.585938-8 8v64c0 4.414062 3.574219 8 8 8h160c4.425781 0 8-3.585938 8-8v-64c0-4.414062-3.574219-8-8-8zm152 64h-144v-48h144zm0 0"/><path d="m248 176c-4.425781 0-8 3.585938-8 8v64c0 4.414062 3.574219 8 8 8h160c4.425781 0 8-3.585938 8-8v-64c0-4.414062-3.574219-8-8-8zm152 64h-144v-48h144zm0 0"/><path d="m248 432h-48c-4.425781 0-8 3.585938-8 8v48c0 4.414062 3.574219 8 8 8h48c4.425781 0 8-3.585938 8-8v-48c0-4.414062-3.574219-8-8-8zm-8 48h-32v-32h32zm0 0"/><path d="m328 368h-48c-4.425781 0-8 3.585938-8 8v112c0 4.414062 3.574219 8 8 8h48c4.425781 0 8-3.585938 8-8v-112c0-4.414062-3.574219-8-8-8zm-8 112h-32v-96h32zm0 0"/><path d="m408 320h-48c-4.425781 0-8 3.585938-8 8v160c0 4.414062 3.574219 8 8 8h48c4.425781 0 8-3.585938 8-8v-160c0-4.414062-3.574219-8-8-8zm-8 160h-32v-144h32zm0 0"/><path d="m488 304h-48c-4.425781 0-8 3.585938-8 8v176c0 4.414062 3.574219 8 8 8h48c4.425781 0 8-3.585938 8-8v-176c0-4.414062-3.574219-8-8-8zm-8 176h-32v-160h32zm0 0"/><path d="m488 240h-40v16h20.6875l-16 16h-28.6875c-2.128906 0-4.160156.839844-5.65625 2.34375l-13.65625 13.65625h-52.6875c-2.128906 0-4.160156.839844-5.65625 2.34375l-45.65625 45.65625h-44.6875c-2.761719 0-5.320312 1.425781-6.785156 3.761719l-37.65625 60.238281h-37.039063c-3.3125-9.289062-12.113281-16-22.527343-16-13.230469 0-24 10.769531-24 24s10.769531 24 24 24c10.414062 0 19.214843-6.710938 22.527343-16h41.480469c2.761719 0 5.320312-1.425781 6.785156-3.761719l37.65625-60.238281h43.558594c2.128906 0 4.160156-.839844 5.65625-2.34375l45.65625-45.65625h52.6875c2.128906 0 4.160156-.839844 5.65625-2.34375l13.65625-13.65625h28.6875c2.128906 0 4.160156-.839844 5.65625-2.34375l18.34375-18.34375v20.6875h16v-40c0-4.414062-3.574219-8-8-8zm-336 176c-4.414062 0-8-3.59375-8-8s3.585938-8 8-8 8 3.59375 8 8-3.585938 8-8 8zm0 0"/></svg>